<mxfile host="Electron" modified="2024-05-13T16:04:18.617Z" agent="Mozilla/5.0 (Windows NT 10.0; Win64; x64) AppleWebKit/537.36 (KHTML, like Gecko) draw.io/24.2.5 Chrome/120.0.6099.109 Electron/28.1.0 Safari/537.36" etag="M_Qosvvaspj8Qdf6RFuY" version="24.2.5" type="device">
  <diagram name="Pagina-1" id="QI2gKdlKlqPeXvp3Vsb9">
    <mxGraphModel dx="656" dy="388" grid="1" gridSize="10" guides="1" tooltips="1" connect="1" arrows="1" fold="1" page="1" pageScale="1" pageWidth="827" pageHeight="1169" math="0" shadow="0">
      <root>
        <mxCell id="0" />
        <mxCell id="1" parent="0" />
        <mxCell id="9JT1Iow4kkiOy3o9_Ayq-14" style="edgeStyle=orthogonalEdgeStyle;rounded=0;orthogonalLoop=1;jettySize=auto;html=1;exitX=0.5;exitY=1;exitDx=0;exitDy=0;" edge="1" parent="1">
          <mxGeometry relative="1" as="geometry">
            <mxPoint x="576.3399999999999" y="352.36" as="sourcePoint" />
            <mxPoint x="576.3399999999999" y="352.36" as="targetPoint" />
          </mxGeometry>
        </mxCell>
        <mxCell id="9JT1Iow4kkiOy3o9_Ayq-54" style="edgeStyle=orthogonalEdgeStyle;rounded=0;orthogonalLoop=1;jettySize=auto;html=1;endArrow=none;endFill=0;" edge="1" parent="1" target="9JT1Iow4kkiOy3o9_Ayq-80">
          <mxGeometry relative="1" as="geometry">
            <mxPoint x="510.64999999999986" y="388.25" as="sourcePoint" />
          </mxGeometry>
        </mxCell>
        <mxCell id="9JT1Iow4kkiOy3o9_Ayq-79" style="edgeStyle=orthogonalEdgeStyle;rounded=0;orthogonalLoop=1;jettySize=auto;html=1;exitX=1;exitY=0.5;exitDx=0;exitDy=0;endArrow=none;endFill=0;" edge="1" parent="1" source="9JT1Iow4kkiOy3o9_Ayq-80" target="9JT1Iow4kkiOy3o9_Ayq-78">
          <mxGeometry relative="1" as="geometry" />
        </mxCell>
        <mxCell id="9JT1Iow4kkiOy3o9_Ayq-80" value="Localizzazione" style="shape=rhombus;perimeter=rhombusPerimeter;whiteSpace=wrap;html=1;align=center;" vertex="1" parent="1">
          <mxGeometry x="599.9999999999999" y="364.36" width="102.98" height="47.79" as="geometry" />
        </mxCell>
        <mxCell id="9JT1Iow4kkiOy3o9_Ayq-83" value="&lt;font style=&quot;font-size: 8px;&quot;&gt;(1,N)&lt;/font&gt;" style="text;html=1;align=center;verticalAlign=middle;whiteSpace=wrap;rounded=1;strokeColor=none;glass=0;" vertex="1" parent="1">
          <mxGeometry x="579.9999999999999" y="367.15000000000003" width="50" height="15" as="geometry" />
        </mxCell>
        <mxCell id="9JT1Iow4kkiOy3o9_Ayq-84" value="&lt;font style=&quot;font-size: 8px;&quot;&gt;(0,N)&lt;/font&gt;" style="text;html=1;align=center;verticalAlign=middle;whiteSpace=wrap;rounded=1;strokeColor=none;glass=0;" vertex="1" parent="1">
          <mxGeometry x="679.9999999999999" y="367.1500000000001" width="50" height="15" as="geometry" />
        </mxCell>
        <mxCell id="mDT-Eh2hzrz550C6JeGP-1" style="edgeStyle=orthogonalEdgeStyle;rounded=0;orthogonalLoop=1;jettySize=auto;html=1;exitX=0.25;exitY=0;exitDx=0;exitDy=0;entryX=0.5;entryY=1;entryDx=0;entryDy=0;endArrow=oval;endFill=0;" edge="1" parent="1" source="mDT-Eh2hzrz550C6JeGP-15">
          <mxGeometry relative="1" as="geometry">
            <mxPoint x="465.00000000000034" y="355.75" as="targetPoint" />
          </mxGeometry>
        </mxCell>
        <mxCell id="mDT-Eh2hzrz550C6JeGP-2" style="edgeStyle=orthogonalEdgeStyle;rounded=0;orthogonalLoop=1;jettySize=auto;html=1;exitX=1;exitY=0;exitDx=0;exitDy=0;entryX=0.25;entryY=1;entryDx=0;entryDy=0;endArrow=oval;endFill=0;" edge="1" parent="1" source="mDT-Eh2hzrz550C6JeGP-15">
          <mxGeometry relative="1" as="geometry">
            <mxPoint x="502.50000000000034" y="355.75" as="targetPoint" />
          </mxGeometry>
        </mxCell>
        <mxCell id="mDT-Eh2hzrz550C6JeGP-3" value="&lt;font style=&quot;font-size: 8px;&quot;&gt;Periodo storico&lt;/font&gt;" style="text;html=1;align=center;verticalAlign=middle;whiteSpace=wrap;rounded=0;" vertex="1" parent="1">
          <mxGeometry x="471.42999999999995" y="329.86" width="70" height="30" as="geometry" />
        </mxCell>
        <mxCell id="mDT-Eh2hzrz550C6JeGP-4" value="&lt;font style=&quot;font-size: 8px;&quot;&gt;Nome&lt;/font&gt;" style="text;html=1;align=center;verticalAlign=middle;whiteSpace=wrap;rounded=0;" vertex="1" parent="1">
          <mxGeometry x="433.92999999999995" y="329.86" width="60" height="30" as="geometry" />
        </mxCell>
        <mxCell id="mDT-Eh2hzrz550C6JeGP-5" value="" style="curved=1;endArrow=oval;html=1;rounded=0;entryX=0.642;entryY=0.924;entryDx=0;entryDy=0;entryPerimeter=0;endFill=1;" edge="1" parent="1">
          <mxGeometry width="50" height="50" relative="1" as="geometry">
            <mxPoint x="425.17999999999995" y="368.0400000000001" as="sourcePoint" />
            <mxPoint x="530.1200000000001" y="355.7600000000001" as="targetPoint" />
            <Array as="points">
              <mxPoint x="475.17999999999995" y="368.0400000000001" />
              <mxPoint x="525.18" y="368.0400000000001" />
            </Array>
          </mxGeometry>
        </mxCell>
        <mxCell id="mDT-Eh2hzrz550C6JeGP-9" value="&lt;font style=&quot;font-size: 8px;&quot;&gt;Descrizione&lt;/font&gt;" style="text;html=1;align=center;verticalAlign=middle;whiteSpace=wrap;rounded=0;" vertex="1" parent="1">
          <mxGeometry x="532.74" y="370.15" width="41.24" height="12" as="geometry" />
        </mxCell>
        <mxCell id="mDT-Eh2hzrz550C6JeGP-10" style="edgeStyle=orthogonalEdgeStyle;rounded=0;orthogonalLoop=1;jettySize=auto;html=1;exitX=0.25;exitY=1;exitDx=0;exitDy=0;endArrow=oval;endFill=0;" edge="1" parent="1">
          <mxGeometry relative="1" as="geometry">
            <mxPoint x="492.77" y="390.7700000000001" as="sourcePoint" />
            <mxPoint x="493.86" y="416.2700000000001" as="targetPoint" />
          </mxGeometry>
        </mxCell>
        <mxCell id="mDT-Eh2hzrz550C6JeGP-11" style="edgeStyle=orthogonalEdgeStyle;rounded=0;orthogonalLoop=1;jettySize=auto;html=1;exitX=1;exitY=0.75;exitDx=0;exitDy=0;endArrow=oval;endFill=0;" edge="1" parent="1" source="mDT-Eh2hzrz550C6JeGP-15">
          <mxGeometry relative="1" as="geometry">
            <mxPoint x="522.35" y="403.2700000000001" as="sourcePoint" />
            <mxPoint x="523.44" y="428.7700000000001" as="targetPoint" />
          </mxGeometry>
        </mxCell>
        <mxCell id="mDT-Eh2hzrz550C6JeGP-12" value="&lt;font style=&quot;font-size: 8px;&quot;&gt;Lingua&lt;/font&gt;" style="text;html=1;align=center;verticalAlign=middle;whiteSpace=wrap;rounded=0;" vertex="1" parent="1">
          <mxGeometry x="519.0699999999999" y="430.2700000000001" width="13.49" height="9.75" as="geometry" />
        </mxCell>
        <mxCell id="mDT-Eh2hzrz550C6JeGP-13" value="&lt;font style=&quot;font-size: 8px;&quot;&gt;Religione&lt;/font&gt;" style="text;html=1;align=center;verticalAlign=middle;whiteSpace=wrap;rounded=0;" vertex="1" parent="1">
          <mxGeometry x="487.9" y="416.2700000000001" width="12" height="14" as="geometry" />
        </mxCell>
        <mxCell id="mDT-Eh2hzrz550C6JeGP-14" style="edgeStyle=orthogonalEdgeStyle;rounded=0;orthogonalLoop=1;jettySize=auto;html=1;exitX=1;exitY=0.5;exitDx=0;exitDy=0;endArrow=oval;endFill=0;" edge="1" parent="1">
          <mxGeometry relative="1" as="geometry">
            <mxPoint x="504.98" y="377.86" as="sourcePoint" />
            <mxPoint x="528.1" y="377.86" as="targetPoint" />
          </mxGeometry>
        </mxCell>
        <mxCell id="mDT-Eh2hzrz550C6JeGP-15" value="CiviltÃ " style="whiteSpace=wrap;html=1;align=center;" vertex="1" parent="1">
          <mxGeometry x="443.92999999999995" y="373.2500000000001" width="70" height="30" as="geometry" />
        </mxCell>
        <mxCell id="mDT-Eh2hzrz550C6JeGP-16" style="edgeStyle=orthogonalEdgeStyle;rounded=0;orthogonalLoop=1;jettySize=auto;html=1;entryX=0.5;entryY=1;entryDx=0;entryDy=0;endArrow=oval;endFill=1;" edge="1" parent="1">
          <mxGeometry relative="1" as="geometry">
            <mxPoint x="772.5000000000003" y="359.86" as="targetPoint" />
            <mxPoint x="772.5" y="375.5" as="sourcePoint" />
          </mxGeometry>
        </mxCell>
        <mxCell id="mDT-Eh2hzrz550C6JeGP-17" value="&lt;font style=&quot;font-size: 8px;&quot;&gt;Nome&lt;/font&gt;" style="text;html=1;align=center;verticalAlign=middle;whiteSpace=wrap;rounded=0;" vertex="1" parent="1">
          <mxGeometry x="742.59" y="335" width="60" height="30" as="geometry" />
        </mxCell>
        <mxCell id="9JT1Iow4kkiOy3o9_Ayq-78" value="Area&lt;div&gt;Geografica&lt;/div&gt;" style="whiteSpace=wrap;html=1;align=center;" vertex="1" parent="1">
          <mxGeometry x="739.9999999999999" y="373.1000000000001" width="65.19" height="30.15" as="geometry" />
        </mxCell>
      </root>
    </mxGraphModel>
  </diagram>
</mxfile>
